HIERARCHY
ROOT Hips
{
    OFFSET 0.000000 0.000000 0.000000
    CHANNELS 6 Xposition Yposition Zposition Zrotation Xrotation Yrotation
        JOINT Chest
        {
            OFFSET -0.000000 31.780966 -0.000000
            CHANNELS 3 Zrotation Xrotation Yrotation
            JOINT Neck
            {
                OFFSET -0.000000 23.880144 0.000000
                CHANNELS 3 Zrotation Xrotation Yrotation
                JOINT Head
                {
                    OFFSET -0.000000 10.511110 0.000000
                    CHANNELS 3 Zrotation Xrotation Yrotation
                    End Site
                    {
                        OFFSET -0.000000 16.244448 0.000000
                    }
                }
            }
            JOINT LeftCollar
            {
                OFFSET -0.000000 23.880144 0.000000
                CHANNELS 3 Zrotation Xrotation Yrotation
                JOINT LeftShoulder
                {
                    OFFSET 19.111111 -0.000000 0.000000
                    CHANNELS 3 Zrotation Xrotation Yrotation
                    JOINT LeftElbow
                    {
                        OFFSET 21.456259 0.000000 0.000000
                        CHANNELS 3 Zrotation Xrotation Yrotation
                        JOINT LeftWrist
                        {
                            OFFSET 25.693237 0.000000 0.000000
                            CHANNELS 3 Zrotation Xrotation Yrotation
                            End Site
                            {
                                OFFSET 0.000000 -14.333333 0.000000
                            }
                        }
                    }
                }
            }
            JOINT RightCollar
            {
                OFFSET -0.000000 23.880144 0.000000
                CHANNELS 3 Zrotation Xrotation Yrotation
                JOINT RightShoulder
                {
                    OFFSET -19.111111 0.000000 0.000000
                    CHANNELS 3 Zrotation Xrotation Yrotation
                    JOINT RightElbow
                    {
                        OFFSET -21.456259 0.000000 0.000000
                        CHANNELS 3 Zrotation Xrotation Yrotation
                        JOINT RightWrist
                        {
                            OFFSET -25.693237 0.000000 0.000000
                            CHANNELS 3 Zrotation Xrotation Yrotation
                            End Site
                            {
                                OFFSET -0.000000 -14.333333 0.000000
                            }
                        }
                    }
                }
            }
        }
    JOINT LeftHip
    {
        OFFSET 11.466667 0.000000 0.000000
        CHANNELS 3 Zrotation Xrotation Yrotation
        JOINT LeftKnee
        {
            OFFSET -0.000000 -37.225342 0.000000
            CHANNELS 3 Zrotation Xrotation Yrotation
            JOINT LeftAnkle
            {
                OFFSET -0.000000 -35.678333 0.000000
                CHANNELS 3 Zrotation Xrotation Yrotation
                End Site
                {
                    OFFSET -0.000000 -4.777778 16.244448
                }
            }
        }
    }
    JOINT RightHip
    {
        OFFSET -11.466667 0.000000 0.000000
        CHANNELS 3 Zrotation Xrotation Yrotation
        JOINT RightKnee
        {
            OFFSET -0.000000 -37.225342 0.000000
            CHANNELS 3 Zrotation Xrotation Yrotation
            JOINT RightAnkle
            {
                OFFSET -0.000000 -35.678333 0.000000
                CHANNELS 3 Zrotation Xrotation Yrotation
                End Site
                {
                    OFFSET -0.000000 -4.777778 16.244448
                }
            }
        }
    }
}
MOTION
Frames:    5
Frame Time:    0.010000
-34.216686    83.350662    -70.884857    -1.655133    5.958192    105.431366    4.604772    12.328680    18.658144    9.943139    -6.823730    -32.262970    10.999949    5.250542    -33.363499    -3.689166    -0.296693    9.917706    -55.167297    65.552277    -25.953777    28.150059    -10.619284    -41.183182    118.019119    59.027897    55.605659    14.528443    1.386144    10.745663    23.653938    50.501568    71.751221    1.259829    0.214520    18.342867    -76.432480    -0.497525    8.966445    1.954669    -1.928016    7.448283    1.661966    19.288942    -15.062791    -7.136008    -15.419315    15.213038    -17.442953    -19.197073    2.912799    9.626998    28.688927    -42.360451    9.498508    -0.974874    -19.158594    
-33.899643    83.239197    -70.521339    -1.713858    6.090391    105.251541    4.511581    12.122174    19.224552    9.724902    -6.777538    -32.313427    11.068819    5.194648    -33.394527    -3.373277    -0.261031    10.100173    -56.816044    65.651413    -24.408976    28.002558    -10.688829    -41.629044    118.047958    60.875935    55.620594    14.603170    1.360117    10.854799    23.129730    50.808064    72.449654    1.397192    0.223561    18.013601    -75.123001    -0.113572    9.678567    2.076503    -2.457458    6.915969    1.701924    20.512825    -14.648754    -7.464944    -15.607288    15.482985    -17.571745    -19.334581    1.698395    9.366577    29.138773    -42.559616    9.319926    -0.445018    -18.921762    
-33.597099    83.115746    -70.123276    -1.783645    6.203552    105.028595    4.390981    11.920238    19.790310    9.515915    -6.706864    -32.351986    11.145368    5.143806    -33.413223    -3.074374    -0.242162    10.263050    -58.381866    65.769852    -22.955574    27.874365    -10.761946    -42.013714    117.993805    62.494976    55.701069    14.665483    1.400619    10.969854    22.708002    51.018787    73.026840    1.735651    0.286036    17.671879    -74.124596    0.285567    10.621877    2.220625    -3.164527    6.323012    1.769502    21.999971    -14.160836    -7.792373    -15.752890    15.722136    -17.590340    -19.575560    0.386260    9.002398    29.735661    -42.483238    8.931825    -0.068025    -18.449528    
-33.309635    82.982544    -69.691765    -1.864672    6.299158    104.750748    4.239558    11.722956    20.356215    9.311634    -6.618446    -32.373463    11.232056    5.109112    -33.415760    -2.794255    -0.236045    10.406222    -59.848438    65.907555    -21.602308    27.734930    -10.806673    -42.343090    117.774734    63.879360    55.994263    14.725334    1.452591    11.090416    22.333443    51.200615    73.511520    1.979069    0.333573    17.382481    -73.277626    0.701994    11.730491    2.379090    -4.045334    5.674402    1.867373    23.740644    -13.586177    -8.109189    -15.819631    15.913035    -17.502420    -19.919020    -0.965702    8.547904    30.461102    -42.113033    8.403819    0.106595    -17.804794    
-33.037300    82.842117    -69.229210    -1.955602    6.379678    104.406212    4.053763    11.532084    20.921696    9.106862    -6.518979    -32.371422    11.333214    5.103087    -33.397636    -2.535573    -0.228480    10.532001    -61.178917    66.061966    -20.385345    27.563675    -10.817981    -42.623913    117.346703    65.039230    56.589355    14.798410    1.438479    11.216211    22.024473    51.434509    73.869553    2.083405    0.319682    17.151518    -72.555595    1.121576    12.983650    2.542297    -5.089179    4.973377    1.998377    25.717548    -12.917309    -8.390697    -15.765867    16.041691    -17.314112    -20.359247    -2.286478    8.025058    31.290491    -41.457272    7.806526    0.049598    -17.064922    
